<svg xmlns="http://www.w3.org/2000/svg" width="396" height="118.315" viewBox="0 0 300 89.632"><path fill="#ff325d" d="M.113 61.897s-1.462 1.99 6.116 5.226c2.198.939 5.561-1.815 9.217-1.06 3.185.658 8.18 3.1 12.517 3.1s9.444-3.1 14.235-3.1c7.517 0 10.618 4.397 15.606 3.739 3.346-.441 6.77-3.406 8.878-3.891 2.107-.485 4.496.8 6.2 0C79.73 62.698 80 53.925 80 53.925zM40.5 37.202C40.204 29.921 34.92 12 34.92 12s12.91 11.108 19.996 19.972c7.085 8.863 12.936 19.898 12.936 19.898l-27.354 2.134s.3-9.412 0-16.802zm-4.711-10.454s-2.51 12.925-6.706 19.702c-4.195 6.777-10.737 10.534-10.737 10.534l19.13-2.356Zm33.842 42.77c-5.26 0-9.075 3.765-13.731 3.283-3.75-.387-9.888-3.2-13.671-3.283-4.415-.096-10.39 2.754-14.157 2.467-6.027-.459-11.58-2.467-13.675-2.467-8.827 0-14.047 6.963-14.047 6.963s9.788-3.68 14.047-3.68c5.294 0 6.724 3.083 13.675 3.68 4.548.39 9.315-3.228 14.157-3.109 5.787.143 8.32 3.029 13.67 3.835 4.723.713 9.219-3.875 13.732-3.835 6.973.062 10.1 4.29 10.1 4.29s-4.84-8.144-10.1-8.144zm0 0"/><path fill="#ff325d" d="M130.624 17.74c9.812 0 19.525 6.442 19.525 22.696V70.07h-14.173V41.427c0-8.424-3.27-11.298-8.721-11.298-7.532 0-11.992 7.136-13.083 10.704v29.236H100V18.533h14.172v9.515c.992-2.676 6.542-10.308 16.452-10.308zm67.196.793h14.172V70.07H197.82v-6.343c-.298 2.082-5.352 7.334-14.272 7.334-11.794 0-25.47-8.523-25.47-26.858 0-17.74 13.676-26.56 25.47-26.56 8.92 0 13.974 5.55 14.272 6.64zm-12.29 39.94c6.938 0 12.983-4.756 12.983-14.27 0-9.218-6.045-13.975-12.983-13.975-7.136 0-13.677 4.856-13.677 13.974 0 9.415 6.541 14.272 13.677 14.272zm92.666-40.138-23.092 51.734h-12.388l-23.093-51.734h14.173l15.064 34.688 15.164-34.688zM300 0v12.091h-14.172V0Zm0 18.533V70.07h-14.172V18.533Z"/></svg>
